<svg width="86" height="87" viewBox="0 0 86 87" fill="none" xmlns="http://www.w3.org/2000/svg">
<path d="M80.6254 56.4556V81.5344H77.0437V85.1161H12.5558V81.5344H8.97412V56.4556H34.053V63.6189H55.5465V56.4556H80.6254Z" fill="#F7C35F"/>
<path d="M51.9649 56.4556H37.6382V60.0372H51.9649V56.4556ZM51.9649 49.2922H37.6382V52.8739H51.9649V49.2922Z" fill="#F7C35F"/>
<path d="M80.6255 20.6282V17.0465H59.1283V9.88318H55.5467V6.30151H34.0531V9.88318H30.4714V17.0465H8.97424V20.6282H5.39258V49.2923H8.97424V52.8739H34.0531V45.7106H55.5467V52.8739H80.6255V49.2923H84.2072V20.6282H80.6255ZM37.6347 13.4648H51.965V17.0465H37.6347V13.4648Z" fill="#F7C35F"/>
</svg>
