<svg width="25" height="25" viewBox="0 0 25 25" fill="none" xmlns="http://www.w3.org/2000/svg">
<path d="M20.3233 13.7285C20.1033 13.7285 19.8733 13.6585 19.6533 13.6085C19.2081 13.509 18.7704 13.3787 18.3433 13.2185C17.8793 13.0497 17.3694 13.0585 16.9116 13.2431C16.4537 13.4277 16.0803 13.7752 15.8633 14.2185L15.6433 14.6785C14.6721 14.1277 13.7749 13.4557 12.9733 12.6785C12.1961 11.8769 11.5241 10.9797 10.9733 10.0085L11.4333 9.79852C11.8766 9.58143 12.224 9.20805 12.4087 8.75021C12.5933 8.29237 12.602 7.78243 12.4333 7.31852C12.2744 6.88755 12.1442 6.44659 12.0433 5.99852C11.9933 5.77852 11.9533 5.54852 11.9233 5.32852C11.8018 4.62414 11.4329 3.98626 10.8829 3.52975C10.3329 3.07325 9.63795 2.82812 8.92326 2.83852H5.91326C5.4905 2.83796 5.07241 2.92676 4.68638 3.0991C4.30034 3.27144 3.95509 3.52341 3.67326 3.83852C3.38558 4.16217 3.17137 4.54427 3.04536 4.95855C2.91935 5.37284 2.88452 5.80949 2.94326 6.23852C3.48685 10.4007 5.38847 14.2672 8.35326 17.2385C11.3246 20.2033 15.1911 22.1049 19.3533 22.6485C19.4831 22.6584 19.6134 22.6584 19.7433 22.6485C20.4807 22.6496 21.1927 22.379 21.7433 21.8885C22.0584 21.6067 22.3103 21.2614 22.4827 20.8754C22.655 20.4894 22.7438 20.0713 22.7433 19.6485V16.6485C22.7379 15.9576 22.4941 15.2896 22.0532 14.7576C21.6123 14.2256 21.0012 13.8621 20.3233 13.7285ZM20.8133 19.7285C20.8129 19.8681 20.7834 20.006 20.7266 20.1334C20.6697 20.2609 20.5868 20.375 20.4833 20.4685C20.3737 20.5684 20.2432 20.6426 20.1014 20.6858C19.9596 20.7291 19.8099 20.7402 19.6633 20.7185C15.9315 20.2311 12.4635 18.5305 9.79326 15.8785C7.12073 13.206 5.40529 9.72588 4.91326 5.97852C4.89153 5.83185 4.90269 5.68219 4.94593 5.54037C4.98917 5.39855 5.0634 5.26811 5.16326 5.15852C5.25788 5.05367 5.37364 4.97005 5.50291 4.91317C5.63218 4.85629 5.77203 4.82744 5.91326 4.82852H8.91326C9.14442 4.82287 9.3704 4.8975 9.55272 5.03971C9.73505 5.18193 9.86246 5.38293 9.91326 5.60852C9.91326 5.87852 10.0033 6.15852 10.0633 6.42852C10.1788 6.95238 10.3326 7.46709 10.5233 7.96852L9.12326 8.62852C8.88262 8.73898 8.69562 8.94037 8.60326 9.18852C8.50324 9.43198 8.50324 9.70505 8.60326 9.94852C10.0425 13.0313 12.5205 15.5093 15.6033 16.9485C15.8467 17.0485 16.1198 17.0485 16.3633 16.9485C16.6114 16.8562 16.8128 16.6692 16.9233 16.4285L17.5533 15.0285C18.0692 15.2166 18.597 15.3703 19.1333 15.4885C19.3933 15.5485 19.6733 15.5985 19.9433 15.6385C20.1688 15.6893 20.3698 15.8167 20.5121 15.9991C20.6543 16.1814 20.7289 16.4074 20.7233 16.6385L20.8133 19.7285ZM14.9133 2.72852C14.6833 2.72852 14.4433 2.72852 14.2133 2.72852C13.948 2.75106 13.7026 2.87804 13.531 3.08151C13.3595 3.28499 13.2757 3.5483 13.2983 3.81352C13.3208 4.07873 13.4478 4.32413 13.6513 4.49573C13.8547 4.66732 14.118 4.75106 14.3833 4.72852H14.9133C16.5046 4.72852 18.0307 5.36066 19.1559 6.48588C20.2811 7.61109 20.9133 9.13722 20.9133 10.7285C20.9133 10.9085 20.9133 11.0785 20.9133 11.2585C20.8911 11.5223 20.9744 11.7842 21.145 11.9866C21.3156 12.1891 21.5595 12.3156 21.8233 12.3385H21.9033C22.1536 12.3395 22.3952 12.2466 22.5804 12.0781C22.7655 11.9096 22.8807 11.6778 22.9033 11.4285C22.9033 11.1985 22.9033 10.9585 22.9033 10.7285C22.9033 8.60852 22.0618 6.5752 20.5636 5.07519C19.0655 3.57519 17.0333 2.73117 14.9133 2.72852ZM16.9133 10.7285C16.9133 10.9937 17.0186 11.2481 17.2062 11.4356C17.3937 11.6232 17.648 11.7285 17.9133 11.7285C18.1785 11.7285 18.4328 11.6232 18.6204 11.4356C18.8079 11.2481 18.9133 10.9937 18.9133 10.7285C18.9133 9.66765 18.4918 8.65023 17.7417 7.90009C16.9915 7.14994 15.9741 6.72852 14.9133 6.72852C14.648 6.72852 14.3937 6.83387 14.2062 7.02141C14.0186 7.20895 13.9133 7.4633 13.9133 7.72852C13.9133 7.99373 14.0186 8.24809 14.2062 8.43562C14.3937 8.62316 14.648 8.72852 14.9133 8.72852C15.4437 8.72852 15.9524 8.93923 16.3275 9.3143C16.7025 9.68938 16.9133 10.1981 16.9133 10.7285Z" fill="#F0FDF4"/>
</svg>
