<svg width="87" height="87" viewBox="0 0 87 87" fill="none" xmlns="http://www.w3.org/2000/svg">
<g clip-path="url(#clip0_2118_1014)">
<path d="M3.7312 83.0899C3.77628 79.2706 4.78359 75.5244 6.65998 72.1975C8.63982 68.7359 11.4937 65.8547 14.9363 63.8419C18.3789 61.8291 22.2896 60.7554 26.2773 60.728C34.3207 60.7464 41.9343 65.1918 45.8946 72.1975C47.77 75.5226 48.7772 79.2666 48.8234 83.0837M61.2262 8.82044V3.78564M78.412 15.0034L82.532 12.1115M44.028 15.0034L39.9019 12.1115M26.2711 50.026C27.7928 50.0613 29.3061 49.792 30.7222 49.2341C32.1383 48.6762 33.4286 47.8409 34.5172 46.7772C35.6058 45.7135 36.4709 44.4429 37.0615 43.0401C37.6521 41.6374 37.9563 40.1307 37.9563 38.6086C37.9563 37.0866 37.6521 35.5799 37.0615 34.1772C36.4709 32.7744 35.6058 31.5038 34.5172 30.4401C33.4286 29.3764 32.1383 28.5411 30.7222 27.9832C29.3061 27.4253 27.7928 27.156 26.2711 27.1913C23.2889 27.2605 20.4521 28.4937 18.3674 30.6274C16.2827 32.761 15.1155 35.6256 15.1155 38.6086C15.1155 41.5917 16.2827 44.4563 18.3674 46.5899C20.4521 48.7236 23.2889 49.9568 26.2711 50.026ZM73.7088 31.3849C73.6984 29.7233 73.3598 28.08 72.7126 26.5495C72.0654 25.019 71.1222 23.6315 69.9373 22.4665C68.7523 21.3015 67.3489 20.3821 65.8076 19.7609C64.2664 19.1398 62.6176 18.8292 60.956 18.8471C59.295 18.8986 57.6606 19.2777 56.1465 19.9626C54.6325 20.6476 53.2686 21.6248 52.1333 22.8383C50.998 24.0518 50.1135 25.4776 49.5308 27.0338C48.948 28.5901 48.6784 30.2461 48.7374 31.9068C48.8597 34.1275 49.5625 36.2772 50.7757 38.1412C51.9889 40.0052 53.67 41.5182 55.651 42.529V48.669C55.6622 49.0301 55.8131 49.3728 56.0719 49.6248C56.3308 49.8768 56.6774 50.0184 57.0387 50.0198H65.3952C65.7575 50.02 66.1057 49.8791 66.3659 49.6269C66.6261 49.3748 66.7778 49.0312 66.789 48.669V42.4185C68.8315 41.3754 70.5537 39.799 71.7731 37.8566C72.9924 35.9141 73.6572 33.6778 73.7088 31.3849Z" stroke="#246A21" stroke-width="6.14" stroke-linecap="round" stroke-linejoin="round"/>
</g>
<defs>
<clipPath id="clip0_2118_1014">
<rect width="85.96" height="85.96" fill="white" transform="translate(0.52002 0.328857)"/>
</clipPath>
</defs>
</svg>
