<svg width="25" height="25" viewBox="0 0 25 25" fill="none" xmlns="http://www.w3.org/2000/svg">
<path d="M21.0196 9.54854L14.8096 3.50854C14.2835 3.00839 13.5854 2.72949 12.8596 2.72949C12.1337 2.72949 11.4356 3.00839 10.9096 3.50854L4.69957 9.50854C4.42365 9.74941 4.20174 10.0458 4.04836 10.3784C3.89498 10.7111 3.81361 11.0723 3.80957 11.4385V20.0185C3.82011 20.7462 4.11861 21.4399 4.63969 21.9479C5.16076 22.4558 5.86192 22.7366 6.58957 22.7285H19.0296C19.7572 22.7366 20.4584 22.4558 20.9795 21.9479C21.5005 21.4399 21.799 20.7462 21.8096 20.0185V11.4385C21.8088 11.087 21.7386 10.7391 21.603 10.4148C21.4675 10.0904 21.2692 9.79606 21.0196 9.54854ZM12.2496 4.94854C12.4025 4.8087 12.6023 4.73116 12.8096 4.73116C13.0168 4.73116 13.2166 4.8087 13.3696 4.94854L18.8096 10.2285L13.3396 15.5085C13.1866 15.6484 12.9868 15.7259 12.7796 15.7259C12.5723 15.7259 12.3725 15.6484 12.2196 15.5085L6.80957 10.2285L12.2496 4.94854ZM19.8096 20.0185C19.7967 20.2148 19.7082 20.3985 19.5628 20.5309C19.4173 20.6633 19.2262 20.7341 19.0296 20.7285H6.58957C6.39295 20.7341 6.20182 20.6633 6.05635 20.5309C5.91089 20.3985 5.82243 20.2148 5.80957 20.0185V12.0785L9.85957 15.9785L8.19957 17.5785C8.01332 17.7659 7.90878 18.0194 7.90878 18.2835C7.90878 18.5477 8.01332 18.8012 8.19957 18.9885C8.29252 19.086 8.4042 19.1638 8.52793 19.217C8.65165 19.2703 8.78487 19.298 8.91957 19.2985C9.17704 19.2975 9.42419 19.1972 9.60957 19.0185L11.3796 17.3185C11.8192 17.5872 12.3244 17.7293 12.8396 17.7293C13.3548 17.7293 13.86 17.5872 14.2996 17.3185L16.0696 19.0185C16.2549 19.1972 16.5021 19.2975 16.7596 19.2985C16.8943 19.298 17.0275 19.2703 17.1512 19.217C17.2749 19.1638 17.3866 19.086 17.4796 18.9885C17.6658 18.8012 17.7704 18.5477 17.7704 18.2835C17.7704 18.0194 17.6658 17.7659 17.4796 17.5785L15.8096 15.9785L19.8096 12.0785V20.0185Z" fill="#F0FDF4"/>
</svg>
