<svg width="40" height="40" viewBox="0 0 40 40" fill="none" xmlns="http://www.w3.org/2000/svg">
<path d="M33.5429 4.93323H5.49727C4.8228 4.93323 4.27789 5.47814 4.27789 6.1526V34.1982C4.27789 34.8727 4.8228 35.4176 5.49727 35.4176H33.5429C34.2174 35.4176 34.7623 34.8727 34.7623 34.1982V6.1526C34.7623 5.47814 34.2174 4.93323 33.5429 4.93323ZM30.0219 13.8309H27.587C25.6779 13.8309 25.3083 14.7378 25.3083 16.0715V19.0094H29.8657L29.2713 23.6087H25.3083V35.4176H20.5565V23.6125H16.5821V19.0094H20.5565V15.618C20.5565 11.6817 22.961 9.53637 26.4743 9.53637C28.1586 9.53637 29.6028 9.66212 30.0258 9.71927V13.8309H30.0219Z" fill="white"/>
</svg>
