<svg width="86" height="87" viewBox="0 0 86 87" fill="none" xmlns="http://www.w3.org/2000/svg">
<path d="M68.0717 18.8373H57.3267C57.3267 12.8917 50.9155 8.09229 43 8.09229C35.0845 8.09229 28.6733 12.8917 28.6733 18.8373H17.9283C15.9584 18.8373 14.3467 20.449 14.3467 22.419C14.3467 24.3889 15.9584 26.0006 17.9283 26.0006V51.0723C17.9283 52.9721 18.6831 54.7941 20.0264 56.1375C21.3698 57.4809 23.1918 58.2356 25.0917 58.2356H60.9083C64.884 58.2356 68.0717 55.0479 68.0717 51.0723V26.0006C70.0416 26.0006 71.6533 24.3889 71.6533 22.419C71.6533 20.449 70.0416 18.8373 68.0717 18.8373ZM60.9083 51.0723H25.0917V26.0006H60.9083V51.0723ZM56.8252 29.5823C57.1118 30.7284 57.3267 31.9104 57.3267 33.1639C57.3267 41.0794 50.9155 47.4906 43 47.4906C35.0845 47.4906 28.6733 41.0794 28.6733 33.1639C28.6733 31.9104 28.8882 30.7284 29.1748 29.5823H36.8395C36.2307 30.6568 35.8367 31.8387 35.8367 33.1639C35.8367 37.1038 39.0602 40.3273 43 40.3273C46.9398 40.3273 50.1633 37.1038 50.1633 33.1639C50.1633 31.8387 49.7694 30.6568 49.1605 29.5823H56.8252ZM71.6533 68.9806V79.7256H14.3467V68.9806C14.3467 66.1869 16.0301 63.7872 18.573 61.8173H43C33.2579 61.8173 22.1905 66.4376 21.51 68.9806V72.5623H64.49V68.9806C63.8095 66.4376 52.7421 61.8173 43 61.8173H67.427C69.97 63.7872 71.6533 66.1869 71.6533 68.9806Z" fill="#F7C35F"/>
</svg>
