<svg width="40" height="40" viewBox="0 0 40 40" fill="none" xmlns="http://www.w3.org/2000/svg">
<path d="M26.9834 5.54297C29.1394 5.54297 31.207 6.39943 32.7316 7.92395C34.2561 9.44846 35.1125 11.5161 35.1125 13.6721V26.6788C35.1125 28.8348 34.2561 30.9025 32.7316 32.427C31.207 33.9515 29.1394 34.808 26.9834 34.808H13.9767C11.8207 34.808 9.75303 33.9515 8.22851 32.427C6.704 30.9025 5.84753 28.8348 5.84753 26.6788V13.6721C5.84753 11.5161 6.704 9.44846 8.22851 7.92395C9.75303 6.39943 11.8207 5.54297 13.9767 5.54297H26.9834ZM20.48 13.6721C18.7552 13.6721 17.1011 14.3573 15.8815 15.5769C14.6619 16.7965 13.9767 18.4507 13.9767 20.1755C13.9767 21.9003 14.6619 23.5544 15.8815 24.774C17.1011 25.9936 18.7552 26.6788 20.48 26.6788C22.2048 26.6788 23.859 25.9936 25.0786 24.774C26.2982 23.5544 26.9834 21.9003 26.9834 20.1755C26.9834 18.4507 26.2982 16.7965 25.0786 15.5769C23.859 14.3573 22.2048 13.6721 20.48 13.6721ZM20.48 16.9238C21.3424 16.9238 22.1695 17.2664 22.7793 17.8762C23.3891 18.486 23.7317 19.3131 23.7317 20.1755C23.7317 21.0379 23.3891 21.8649 22.7793 22.4747C22.1695 23.0845 21.3424 23.4271 20.48 23.4271C19.6176 23.4271 18.7906 23.0845 18.1808 22.4747C17.571 21.8649 17.2284 21.0379 17.2284 20.1755C17.2284 19.3131 17.571 18.486 18.1808 17.8762C18.7906 17.2664 19.6176 16.9238 20.48 16.9238ZM27.7963 11.2334C27.3651 11.2334 26.9515 11.4047 26.6466 11.7096C26.3417 12.0145 26.1705 12.428 26.1705 12.8592C26.1705 13.2904 26.3417 13.704 26.6466 14.0089C26.9515 14.3138 27.3651 14.4851 27.7963 14.4851C28.2275 14.4851 28.641 14.3138 28.9459 14.0089C29.2508 13.704 29.4221 13.2904 29.4221 12.8592C29.4221 12.428 29.2508 12.0145 28.9459 11.7096C28.641 11.4047 28.2275 11.2334 27.7963 11.2334Z" fill="white"/>
</svg>
