<svg width="87" height="87" viewBox="0 0 87 87" fill="none" xmlns="http://www.w3.org/2000/svg">
<path d="M41.591 74.8992C42.1398 75.3169 42.8104 75.5431 43.5001 75.5431C44.1897 75.5431 44.8603 75.3169 45.4091 74.8992C51.2651 70.5045 68.5717 56.1527 68.5717 39.7845V22.1269C68.5754 21.6714 68.4101 21.2307 68.1078 20.89C67.8055 20.5493 67.3876 20.3328 66.9349 20.2823C59.7632 19.5478 52.8897 17.0284 46.9421 12.9542L44.7572 11.4607C44.3872 11.2066 43.9489 11.0706 43.5001 11.0706C43.0512 11.0706 42.6129 11.2066 42.2429 11.4607L40.0581 12.9542C34.1104 17.0284 27.237 19.5478 20.0652 20.2823C19.6125 20.3328 19.1947 20.5493 18.8923 20.89C18.59 21.2307 18.4247 21.6714 18.4284 22.1269V39.7845C18.4284 56.1527 35.735 70.5045 41.591 74.892" stroke="#246A21" stroke-width="5.3725" stroke-linecap="round" stroke-linejoin="round"/>
</svg>
