<svg width="86" height="87" viewBox="0 0 86 87" fill="none" xmlns="http://www.w3.org/2000/svg">
<path d="M41.0909 75.4993C41.6397 75.917 42.3103 76.1432 42.9999 76.1432C43.6896 76.1432 44.3602 75.917 44.909 75.4993C50.765 71.1046 68.0716 56.7528 68.0716 40.3846V22.727C68.0753 22.2715 67.91 21.8308 67.6077 21.4901C67.3054 21.1494 66.8875 20.9329 66.4348 20.8824C59.2631 20.1479 52.3896 17.6285 46.4419 13.5543L44.2571 12.0608C43.8871 11.8067 43.4488 11.6707 42.9999 11.6707C42.5511 11.6707 42.1128 11.8067 41.7428 12.0608L39.558 13.5543C33.6103 17.6285 26.7368 20.1479 19.5651 20.8824C19.1124 20.9329 18.6945 21.1494 18.3922 21.4901C18.0899 21.8308 17.9246 22.2715 17.9283 22.727V40.3846C17.9283 56.7528 35.2349 71.1046 41.0909 75.4921" stroke="#F7C35F" stroke-width="5.3725" stroke-linecap="round" stroke-linejoin="round"/>
</svg>
