<svg width="39" height="40" viewBox="0 0 39 40" fill="none" xmlns="http://www.w3.org/2000/svg">
<path fill-rule="evenodd" clip-rule="evenodd" d="M29.2551 5.54297C30.5486 5.54297 31.7893 6.05685 32.704 6.97156C33.6187 7.88626 34.1326 9.12688 34.1326 10.4205V29.9305C34.1326 31.2241 33.6187 32.4647 32.704 33.3794C31.7893 34.2941 30.5486 34.808 29.2551 34.808H9.74505C8.45146 34.808 7.21085 34.2941 6.29614 33.3794C5.38143 32.4647 4.86755 31.2241 4.86755 29.9305V10.4205C4.86755 9.12688 5.38143 7.88626 6.29614 6.97156C7.21085 6.05685 8.45146 5.54297 9.74505 5.54297H29.2551ZM12.9967 16.9238C12.5655 16.9238 12.152 17.0951 11.8471 17.4C11.5422 17.7049 11.3709 18.1184 11.3709 18.5496V26.6788C11.3709 27.11 11.5422 27.5235 11.8471 27.8284C12.152 28.1333 12.5655 28.3046 12.9967 28.3046C13.4279 28.3046 13.8415 28.1333 14.1464 27.8284C14.4513 27.5235 14.6226 27.11 14.6226 26.6788V18.5496C14.6226 18.1184 14.4513 17.7049 14.1464 17.4C13.8415 17.0951 13.4279 16.9238 12.9967 16.9238ZM17.8742 15.298C17.443 15.298 17.0295 15.4693 16.7246 15.7742C16.4197 16.0791 16.2484 16.4926 16.2484 16.9238V26.6788C16.2484 27.11 16.4197 27.5235 16.7246 27.8284C17.0295 28.1333 17.443 28.3046 17.8742 28.3046C18.3054 28.3046 18.719 28.1333 19.0239 27.8284C19.3288 27.5235 19.5001 27.11 19.5001 26.6788V20.7283C19.9959 20.169 20.8332 19.5121 21.7648 19.1138C22.3062 18.8829 23.1208 18.7886 23.6866 18.9675C23.8743 19.0151 24.0414 19.1224 24.1629 19.2731C24.2475 19.3869 24.3776 19.6406 24.3776 20.1755V26.6788C24.3776 27.11 24.5488 27.5235 24.8537 27.8284C25.1587 28.1333 25.5722 28.3046 26.0034 28.3046C26.4346 28.3046 26.8481 28.1333 27.153 27.8284C27.4579 27.5235 27.6292 27.11 27.6292 26.6788V20.1755C27.6292 19.0862 27.3528 18.1172 26.7773 17.34C26.2477 16.6353 25.5065 16.1186 24.6621 15.8654C23.1956 15.4053 21.5714 15.6605 20.4869 16.1255C20.1398 16.2748 19.8016 16.4442 19.474 16.6328C19.4059 16.2582 19.2084 15.9194 18.916 15.6754C18.6237 15.4315 18.255 15.2979 17.8742 15.298ZM12.9967 12.0463C12.5655 12.0463 12.152 12.2176 11.8471 12.5225C11.5422 12.8274 11.3709 13.2409 11.3709 13.6721C11.3709 14.1033 11.5422 14.5169 11.8471 14.8218C12.152 15.1267 12.5655 15.298 12.9967 15.298C13.4279 15.298 13.8415 15.1267 14.1464 14.8218C14.4513 14.5169 14.6226 14.1033 14.6226 13.6721C14.6226 13.2409 14.4513 12.8274 14.1464 12.5225C13.8415 12.2176 13.4279 12.0463 12.9967 12.0463Z" fill="white"/>
</svg>
