<svg width="25" height="25" viewBox="0 0 25 25" fill="none" xmlns="http://www.w3.org/2000/svg">
<path d="M18.519 5.20843C16.9277 3.61713 14.7694 2.72314 12.519 2.72314C10.2685 2.72314 8.11027 3.61713 6.51897 5.20843C4.92767 6.79973 4.03369 8.95799 4.03369 11.2084C4.03369 13.4589 4.92767 15.6171 6.51897 17.2084L11.789 22.4884C11.8819 22.5822 11.9925 22.6565 12.1144 22.7073C12.2363 22.7581 12.367 22.7842 12.499 22.7842C12.631 22.7842 12.7617 22.7581 12.8835 22.7073C13.0054 22.6565 13.116 22.5822 13.209 22.4884L18.519 17.1584C20.1036 15.5737 20.9939 13.4245 20.9939 11.1834C20.9939 8.94237 20.1036 6.7931 18.519 5.20843ZM17.089 15.7284L12.519 20.3184L7.94897 15.7284C7.04612 14.8247 6.43145 13.6737 6.18267 12.4207C5.93389 11.1678 6.06216 9.86917 6.55128 8.68911C7.04039 7.50904 7.86839 6.50048 8.9306 5.7909C9.99282 5.08133 11.2416 4.70261 12.519 4.70261C13.7964 4.70261 15.0451 5.08133 16.1073 5.7909C17.1696 6.50048 17.9976 7.50904 18.4867 8.68911C18.9758 9.86917 19.1041 11.1678 18.8553 12.4207C18.6065 13.6737 17.9918 14.8247 17.089 15.7284ZM9.51897 8.13843C8.71169 8.9482 8.25837 10.045 8.25837 11.1884C8.25837 12.3319 8.71169 13.4287 9.51897 14.2384C10.1187 14.8392 10.8826 15.2495 11.7146 15.4178C12.5467 15.5862 13.4099 15.505 14.196 15.1846C14.9822 14.8642 15.6562 14.3187 16.1335 13.6167C16.6108 12.9146 16.8701 12.0873 16.879 11.2384C16.8835 10.6716 16.7743 10.1097 16.5579 9.58581C16.3415 9.06194 16.0222 8.58678 15.619 8.18843C15.2226 7.78301 14.7501 7.45996 14.2284 7.23789C13.7067 7.01582 13.1463 6.8991 12.5794 6.89445C12.0124 6.88981 11.4502 6.99732 10.9249 7.21081C10.3997 7.4243 9.92189 7.73956 9.51897 8.13843ZM14.209 12.8184C13.83 13.2032 13.3292 13.4443 12.7921 13.5007C12.255 13.557 11.715 13.4251 11.2645 13.1274C10.8139 12.8296 10.4808 12.3847 10.322 11.8685C10.1632 11.3524 10.1886 10.7971 10.3939 10.2976C10.5992 9.7981 10.9717 9.38544 11.4476 9.13016C11.9234 8.87488 12.4732 8.79283 13.0029 8.89804C13.5326 9.00325 14.0093 9.28918 14.3515 9.70696C14.6937 10.1247 14.8801 10.6484 14.879 11.1884C14.8644 11.8057 14.6055 12.392 14.159 12.8184H14.209Z" fill="#F0FDF4"/>
</svg>
