<svg width="51" height="51" viewBox="0 0 51 51" fill="none" xmlns="http://www.w3.org/2000/svg">
<path d="M42.3273 14.5416H38.4502L28.9377 24.0499C29.2654 24.8849 29.2955 25.8072 29.0231 26.6618C28.7506 27.5164 28.1922 28.2511 27.4418 28.7424C26.6914 29.2337 25.7946 29.4516 24.9024 29.3595C24.0102 29.2674 23.1769 28.8709 22.5427 28.2367C21.9084 27.6024 21.5119 26.7691 21.4198 25.8769C21.3277 24.9847 21.5456 24.088 22.0369 23.3375C22.5282 22.5871 23.2629 22.0287 24.1175 21.7563C24.9721 21.4838 25.8944 21.514 26.7294 21.8416L36.2398 12.3312V8.4541C36.24 7.9353 36.4461 7.43778 36.8127 7.07076L40.4169 3.4666C40.4836 3.39947 40.5673 3.35178 40.6591 3.32866C40.7509 3.30553 40.8472 3.30784 40.9377 3.33535C41.1232 3.38951 41.2607 3.54368 41.2982 3.73326L42.2565 8.52701L47.0482 9.48535C47.2357 9.52285 47.3898 9.66035 47.444 9.84576C47.4713 9.93583 47.4738 10.0316 47.451 10.123C47.4283 10.2143 47.3812 10.2978 47.3148 10.3645L43.7086 13.9687C43.3421 14.3348 42.8454 14.5408 42.3273 14.5416Z" fill="white"/>
<path d="M5.771 25.4791C5.771 30.6591 7.82875 35.627 11.4916 39.2898C15.1544 42.9526 20.1222 45.0104 25.3022 45.0104C27.8671 45.0104 30.4069 44.5052 32.7765 43.5237C35.1462 42.5421 37.2993 41.1035 39.1129 39.2898C40.9266 37.4762 42.3652 35.3231 43.3468 32.9534C44.3283 30.5838 44.8335 28.044 44.8335 25.4791C44.8335 23.6083 44.571 21.8 44.0814 20.0896C43.9841 19.6968 44.0429 19.2817 44.2455 18.9314C44.4481 18.5812 44.7786 18.3232 45.1675 18.2117C45.5565 18.1002 45.9735 18.144 46.3309 18.3337C46.6882 18.5235 46.958 18.8445 47.0835 19.2291C47.6543 21.2166 47.9585 23.3125 47.9585 25.4791C47.9585 37.9916 37.8147 48.1354 25.3022 48.1354C12.7897 48.1354 2.646 37.9916 2.646 25.4791C2.646 12.9666 12.7897 2.82289 25.3022 2.82289C27.4168 2.8208 29.5189 3.11455 31.5522 3.6958C31.7505 3.75142 31.9358 3.84567 32.0975 3.97314C32.2592 4.10061 32.3941 4.25878 32.4945 4.43857C32.5949 4.61835 32.6587 4.81621 32.6824 5.02075C32.706 5.2253 32.689 5.4325 32.6323 5.63045C32.5756 5.8284 32.4804 6.01319 32.352 6.1742C32.2237 6.33521 32.0648 6.46926 31.8844 6.56865C31.7041 6.66804 31.5059 6.73081 31.3012 6.75335C31.0966 6.77588 30.8895 6.75774 30.6918 6.69997C28.9391 6.19967 27.125 5.94653 25.3022 5.94789C20.1222 5.94789 15.1544 8.00564 11.4916 11.6685C7.82875 15.3313 5.771 20.2991 5.771 25.4791Z" fill="white"/>
<path d="M15.1461 25.4792C15.1519 26.859 15.4389 28.2232 15.9895 29.4884C16.5402 30.7537 17.3429 31.8934 18.3487 32.838C19.3545 33.7827 20.5423 34.5124 21.8395 34.9826C23.1368 35.4529 24.5163 35.6539 25.8938 35.5732C27.2713 35.4925 28.6179 35.132 29.8514 34.5135C31.0848 33.895 32.1793 33.0317 33.068 31.9761C33.9567 30.9205 34.6209 29.6949 35.0201 28.374C35.4193 27.0532 35.5451 25.6649 35.3899 24.2938C35.3461 24.0161 35.3783 23.7317 35.483 23.4709C35.5877 23.21 35.761 22.9823 35.9846 22.8119C36.2081 22.6415 36.4736 22.5347 36.753 22.5029C37.0323 22.4711 37.315 22.5155 37.5711 22.6313C38.094 22.8646 38.4461 23.3625 38.4919 23.9333C38.8154 26.6734 38.2772 29.4462 36.9521 31.8664C35.627 34.2865 33.5809 36.2336 31.0981 37.4372C28.6154 38.6408 25.8193 39.041 23.0986 38.5822C20.3779 38.1234 17.8677 36.8283 15.9169 34.8771C13.9667 32.928 12.6714 30.4203 12.2105 27.7018C11.7497 24.9834 12.1462 22.1889 13.3451 19.7059C14.544 17.223 16.4858 15.1746 18.9013 13.845C21.3167 12.5153 24.0861 11.9703 26.8253 12.2854C27.0323 12.3046 27.2335 12.365 27.4169 12.463C27.6004 12.5609 27.7624 12.6945 27.8936 12.8559C28.0247 13.0173 28.1223 13.2033 28.1807 13.4029C28.239 13.6025 28.2569 13.8117 28.2333 14.0184C28.2098 14.225 28.1452 14.4248 28.0434 14.6062C27.9416 14.7875 27.8046 14.9467 27.6405 15.0744C27.4763 15.2021 27.2884 15.2958 27.0876 15.3499C26.8868 15.404 26.6772 15.4175 26.4711 15.3896C25.0482 15.2251 23.6067 15.3634 22.241 15.7953C20.8754 16.2272 19.6165 16.9431 18.547 17.8959C17.4776 18.8487 16.6217 20.0169 16.0356 21.3238C15.4494 22.6307 15.1463 24.0468 15.1461 25.4792Z" fill="white"/>
</svg>
