<svg width="86" height="87" viewBox="0 0 86 87" fill="none" xmlns="http://www.w3.org/2000/svg">
<path d="M57.9623 75.4725C53.2882 77.6951 48.1755 78.8425 42.9999 78.8303C23.7448 78.8303 8.07863 63.1641 8.07863 43.9091C8.07863 35.6489 10.918 27.848 16.1374 21.5917V27.7916H21.5099V11.6741H5.39238V17.0466H13.0267C6.36635 24.4062 2.68686 33.9832 2.70613 43.9091C2.70613 66.127 20.7819 84.2028 42.9999 84.2028C48.9748 84.2153 54.8766 82.8899 60.2725 80.3239L57.9623 75.4725Z" fill="#F7C35F"/>
<path d="M56.4312 25.1052C47.9427 25.1052 40.9826 31.7053 40.3728 40.0408C37.4197 37.3461 33.5665 35.8516 29.5687 35.8502H18.8237V46.5952C18.8237 55.484 26.0551 62.7127 34.9412 62.7127H40.3137V73.4577H45.6862V51.9677H51.0587C59.9448 51.9677 67.1762 44.739 67.1762 35.8502V25.1052H56.4312ZM34.9412 57.3402C29.0154 57.3402 24.1962 52.5211 24.1962 46.5952V41.2227H29.5687C35.4946 41.2227 40.3137 46.0419 40.3137 51.9677V53.5419L34.1542 47.3823L30.3558 51.1807L36.5154 57.3402H34.9412ZM61.8037 35.8502C61.8037 41.7761 56.9846 46.5952 51.0587 46.5952H49.4846L55.6442 40.4357L51.8458 36.6373L45.6862 42.7969V41.2227C45.6862 35.2969 50.5054 30.4777 56.4312 30.4777H61.8037V35.8502Z" fill="#F7C35F"/>
<path d="M83.2939 43.9091C83.2939 21.6911 65.2181 3.61532 43.0001 3.61532C37.0252 3.60288 31.1234 4.92828 25.7275 7.49427L28.0377 12.3456C32.7118 10.123 37.8245 8.97567 43.0001 8.98782C62.2552 8.98782 77.9214 24.654 77.9214 43.9091C77.9214 52.1693 75.082 59.9702 69.8626 66.2264V60.0266H64.4901V76.1441H80.6076V70.7716H72.9733C79.6337 63.412 83.3131 53.835 83.2939 43.9091Z" fill="#F7C35F"/>
</svg>
