<svg width="87" height="87" viewBox="0 0 87 87" fill="none" xmlns="http://www.w3.org/2000/svg">
<path d="M68.5717 34.7844C68.5717 44.0251 64.023 51.1347 57.1032 55.816C55.4914 56.9048 54.6856 57.4492 54.288 58.0724C53.894 58.6885 53.7543 59.5051 53.4857 61.1312L53.2708 62.3955C52.798 65.2537 52.558 66.6828 51.5552 67.5316C50.5523 68.3805 49.1053 68.3805 46.2078 68.3805H36.8524C33.9549 68.3805 32.5079 68.3805 31.505 67.5316C30.5021 66.6828 30.2658 65.2537 29.7858 62.3955L29.5781 61.1312C29.3059 59.5087 29.1733 58.6956 28.7794 58.0796C28.3854 57.4636 27.5759 56.912 25.9606 55.8088C19.116 51.1276 14.8467 44.0216 14.8467 34.7844C14.8467 19.7164 26.8739 7.49214 41.7092 7.49214C43.5139 7.49023 45.3141 7.67265 47.0817 8.03655" stroke="#246A21" stroke-width="5.3725" stroke-linecap="round" stroke-linejoin="round"/>
<path d="M48.8726 68.3805V71.9621C48.8726 75.3396 48.8726 77.0266 47.8231 78.076C46.7737 79.1255 45.0867 79.1255 41.7092 79.1255C38.3317 79.1255 36.6448 79.1255 35.5953 78.076C34.5459 77.0266 34.5459 75.3396 34.5459 71.9621V68.3805M59.6176 7.49213L60.5416 9.98855C61.7522 13.2622 62.3575 14.899 63.5502 16.0917C64.7465 17.288 66.3833 17.8933 69.657 19.1039L72.1534 20.028L69.657 20.952C66.3833 22.1626 64.7465 22.7679 63.5538 23.9606C62.3575 25.1569 61.7522 26.7937 60.5416 30.0674L59.6176 32.5638L58.6935 30.0674C57.4829 26.7937 56.8776 25.1569 55.6849 23.9642C54.4886 22.7679 52.8518 22.1626 49.5782 20.952L47.0817 20.028L49.5782 19.1039C52.8518 17.8933 54.4886 17.288 55.6813 16.0953C56.8776 14.899 57.4829 13.2622 58.6935 9.98855L59.6176 7.49213Z" stroke="#246A21" stroke-width="5.3725" stroke-linecap="round" stroke-linejoin="round"/>
</svg>
