<svg width="87" height="87" viewBox="0 0 87 87" fill="none" xmlns="http://www.w3.org/2000/svg">
<path d="M58.4625 74.8724C53.7884 77.095 48.6758 78.2424 43.5001 78.2302C24.2451 78.2302 8.57887 62.564 8.57887 43.309C8.57887 35.0488 11.4182 27.2479 16.6376 20.9916V27.1915H22.0101V11.074H5.89262V16.4465H13.5269C6.8666 23.8061 3.18711 33.3831 3.20637 43.309C3.20637 65.5269 21.2822 83.6027 43.5001 83.6027C49.475 83.6152 55.3769 82.2898 60.7727 79.7238L58.4625 74.8724Z" fill="#246A21"/>
<path d="M56.9312 24.5051C48.4427 24.5051 41.4826 31.1052 40.8728 39.4407C37.9197 36.746 34.0665 35.2515 30.0687 35.2501H19.3237V45.9951C19.3237 54.8839 26.5551 62.1126 35.4412 62.1126H40.8137V72.8576H46.1862V51.3676H51.5587C60.4448 51.3676 67.6762 44.1389 67.6762 35.2501V24.5051H56.9312ZM35.4412 56.7401C29.5154 56.7401 24.6962 51.921 24.6962 45.9951V40.6226H30.0687C35.9946 40.6226 40.8137 45.4418 40.8137 51.3676V52.9418L34.6542 46.7822L30.8558 50.5806L37.0154 56.7401H35.4412ZM62.3037 35.2501C62.3037 41.176 57.4846 45.9951 51.5587 45.9951H49.9846L56.1442 39.8356L52.3458 36.0372L46.1862 42.1968V40.6226C46.1862 34.6968 51.0054 29.8776 56.9312 29.8776H62.3037V35.2501Z" fill="#246A21"/>
<path d="M83.7939 43.309C83.7939 21.091 65.7181 3.01522 43.5001 3.01522C37.5252 3.00278 31.6234 4.32818 26.2275 6.89417L28.5377 11.7455C33.2118 9.52293 38.3245 8.37557 43.5001 8.38772C62.7552 8.38772 78.4214 24.0539 78.4214 43.309C78.4214 51.5692 75.582 59.3701 70.3626 65.6263V59.4265H64.9901V75.544H81.1076V70.1715H73.4733C80.1337 62.8119 83.8131 53.2349 83.7939 43.309Z" fill="#246A21"/>
</svg>
