<svg width="51" height="51" viewBox="0 0 51 51" fill="none" xmlns="http://www.w3.org/2000/svg">
<path d="M19.0523 9.77082C21.0733 9.12876 23.1819 8.80544 25.3023 8.81249C34.0148 8.81249 39.944 14.0208 43.4794 18.6125C45.2502 20.9167 46.1357 22.0646 46.1357 25.4792C46.1357 28.8958 45.2502 30.0437 43.4794 32.3458C39.944 36.9375 34.0148 42.1458 25.3023 42.1458C16.5898 42.1458 10.6607 36.9375 7.12524 32.3458C5.35441 30.0458 4.46899 28.8937 4.46899 25.4792C4.46899 22.0625 5.35441 20.9146 7.12524 18.6125C8.20546 17.2017 9.40804 15.889 10.719 14.6896" stroke="white" stroke-width="3.125" stroke-linecap="round"/>
<path d="M31.5524 25.4791C31.5524 27.1367 30.8939 28.7264 29.7218 29.8985C28.5497 31.0706 26.96 31.7291 25.3024 31.7291C23.6448 31.7291 22.0551 31.0706 20.8829 29.8985C19.7108 28.7264 19.0524 27.1367 19.0524 25.4791C19.0524 23.8215 19.7108 22.2318 20.8829 21.0597C22.0551 19.8876 23.6448 19.2291 25.3024 19.2291C26.96 19.2291 28.5497 19.8876 29.7218 21.0597C30.8939 22.2318 31.5524 23.8215 31.5524 25.4791Z" stroke="white" stroke-width="3.125"/>
</svg>
