<svg width="40" height="40" viewBox="0 0 40 40" fill="none" xmlns="http://www.w3.org/2000/svg">
<path d="M35.7821 11.3098C35.767 10.6123 35.7111 9.91637 35.6147 9.22546C35.4981 8.611 35.2996 8.01496 35.0245 7.4533C34.423 6.26511 33.4582 5.29973 32.2703 4.69751C31.7122 4.42392 31.12 4.226 30.5096 4.10896C29.8133 4.01082 29.1119 3.95381 28.409 3.93825C28.1115 3.92687 27.7261 3.92199 27.5473 3.92199L11.5361 3.91711C11.3573 3.91711 10.9719 3.92199 10.6744 3.93337C9.97696 3.94849 9.281 4.00441 8.59008 4.10083C7.97563 4.21741 7.37959 4.4159 6.81793 4.69101C5.62973 5.29252 4.66435 6.25733 4.06214 7.44517C3.78855 8.00332 3.59062 8.59547 3.47359 9.20595C3.3749 9.90214 3.31735 10.6036 3.30125 11.3065C3.29149 11.6041 3.28499 11.9894 3.28499 12.1682L3.28174 28.1794C3.28174 28.3583 3.28662 28.7436 3.298 29.0411C3.31312 29.7386 3.36903 30.4345 3.46546 31.1254C3.58203 31.7399 3.78053 32.3359 4.05564 32.8976C4.65715 34.0858 5.62196 35.0512 6.8098 35.6534C7.36795 35.927 7.96009 36.1249 8.57057 36.2419C9.2668 36.3401 9.96821 36.3971 10.6712 36.4126C10.9687 36.424 11.354 36.4289 11.5328 36.4289L27.544 36.4322C27.7229 36.4322 28.1082 36.4273 28.4057 36.4159C29.1032 36.4008 29.7991 36.3449 30.4901 36.2484C31.1045 36.1319 31.7006 35.9334 32.2622 35.6583C33.451 35.057 34.417 34.0922 35.0196 32.9041C35.2932 32.3459 35.4911 31.7538 35.6082 31.1433C35.7069 30.4471 35.7644 29.7457 35.7805 29.0427C35.7903 28.7452 35.7968 28.3599 35.7968 28.181L35.7984 12.1715C35.7984 11.9926 35.7935 11.6073 35.7821 11.3098ZM19.8929 31.4864H19.888C17.9525 31.4878 16.0477 31.0025 14.3488 30.0751L8.20314 31.6863L9.84848 25.6821C8.57456 23.4715 8.06555 20.9024 8.40035 18.373C8.73515 15.8437 9.89507 13.4954 11.7003 11.6924C13.5055 9.88934 15.8551 8.73222 18.3848 8.40042C20.9146 8.06863 23.4831 8.5807 25.6922 9.85725C27.9013 11.1338 29.6276 13.1035 30.6033 15.461C31.579 17.8184 31.7498 20.4319 31.089 22.8963C30.4282 25.3607 28.9729 27.5382 26.9486 29.0913C24.9244 30.6444 22.4443 31.4862 19.8929 31.4864Z" fill="white"/>
<path d="M19.8978 10.2594C18.1762 10.2589 16.4859 10.7197 15.0026 11.5937C13.5194 12.4678 12.2974 13.7233 11.4638 15.2296C10.6301 16.7359 10.2152 18.4381 10.2623 20.159C10.3093 21.88 10.8165 23.557 11.7312 25.0155L11.9605 25.3797L10.9866 28.9338L14.6334 27.9778L14.9845 28.1859C16.4685 29.0664 18.1625 29.5304 19.888 29.5288H19.8929C22.4484 29.5292 24.8994 28.5145 26.7067 26.7078C28.514 24.9011 29.5296 22.4504 29.53 19.8949C29.5305 17.3394 28.5157 14.8884 26.709 13.0811C24.9023 11.2738 22.4517 10.2582 19.8962 10.2578L19.8978 10.2594ZM25.5622 24.0302C25.3494 24.3824 25.0658 24.6867 24.7295 24.9237C24.3931 25.1607 24.0112 25.3254 23.6079 25.4073C22.9993 25.5119 22.3747 25.4729 21.7838 25.2935C21.2231 25.1197 20.6722 24.9156 20.1335 24.6822C18.1333 23.6784 16.4284 22.1718 15.1861 20.3103C14.5082 19.4487 14.0968 18.4078 14.0025 17.3156C13.995 16.8648 14.0813 16.4174 14.256 16.0017C14.4306 15.5861 14.6898 15.2113 15.017 14.9012C15.1141 14.7912 15.2328 14.7022 15.3656 14.6399C15.4984 14.5775 15.6426 14.543 15.7893 14.5386C15.9812 14.5386 16.1746 14.5386 16.3437 14.5484C16.5226 14.5565 16.7599 14.4801 16.9941 15.0459C17.2379 15.6247 17.8167 17.0505 17.8883 17.1952C17.9339 17.2712 17.96 17.3573 17.9643 17.4458C17.9685 17.5343 17.9508 17.6225 17.9127 17.7025C17.84 17.8766 17.7426 18.0393 17.6233 18.1854C17.4769 18.3545 17.3192 18.5626 17.1892 18.6926C17.0428 18.8373 16.8933 18.9934 17.0607 19.2828C17.4963 20.0271 18.0392 20.7031 18.6719 21.2891C19.3598 21.899 20.148 22.3853 21.0017 22.7263C21.2911 22.8727 21.4602 22.8466 21.6293 22.6532C21.7984 22.4597 22.3528 21.8077 22.5463 21.5183C22.7398 21.2289 22.9316 21.2777 23.1966 21.3736C23.4616 21.4696 24.8875 22.1703 25.1769 22.3166C25.4663 22.4629 25.6597 22.5329 25.7313 22.6532C25.8094 23.1189 25.7507 23.5973 25.5622 24.0302Z" fill="white"/>
</svg>
